<svg width="20" height="20" viewBox="0 0 20 20" fill="none" xmlns="http://www.w3.org/2000/svg">
<g id="briefcase">
<g id="Vector">
<path fill-rule="evenodd" clip-rule="evenodd" d="M3.33325 6.66666C2.87301 6.66666 2.49992 7.03975 2.49992 7.49999V15.8333C2.49992 16.2936 2.87301 16.6667 3.33325 16.6667H16.6666C17.1268 16.6667 17.4999 16.2936 17.4999 15.8333V7.49999C17.4999 7.03975 17.1268 6.66666 16.6666 6.66666H3.33325ZM0.833252 7.49999C0.833252 6.11928 1.95254 4.99999 3.33325 4.99999H16.6666C18.0473 4.99999 19.1666 6.11928 19.1666 7.49999V15.8333C19.1666 17.214 18.0473 18.3333 16.6666 18.3333H3.33325C1.95254 18.3333 0.833252 17.214 0.833252 15.8333V7.49999Z" fill="white"/>
<path fill-rule="evenodd" clip-rule="evenodd" d="M6.56549 2.39889C7.03433 1.93005 7.67021 1.66666 8.33325 1.66666H11.6666C12.3296 1.66666 12.9655 1.93005 13.4344 2.39889C13.9032 2.86773 14.1666 3.50361 14.1666 4.16666V17.5C14.1666 17.9602 13.7935 18.3333 13.3333 18.3333C12.873 18.3333 12.4999 17.9602 12.4999 17.5V4.16666C12.4999 3.94564 12.4121 3.73368 12.2558 3.5774C12.0996 3.42112 11.8876 3.33332 11.6666 3.33332H8.33325C8.11224 3.33332 7.90028 3.42112 7.744 3.5774C7.58772 3.73368 7.49992 3.94564 7.49992 4.16666V17.5C7.49992 17.9602 7.12682 18.3333 6.66658 18.3333C6.20635 18.3333 5.83325 17.9602 5.83325 17.5V4.16666C5.83325 3.50361 6.09664 2.86773 6.56549 2.39889Z" fill="white"/>
</g>
</g>
</svg>
