<svg width="34" height="25" viewBox="0 0 34 25" fill="none" xmlns="http://www.w3.org/2000/svg">
<g id="Frame 1">
<g id="Group 8">
<g id="Rectangle 15">
<path d="M9.24273 23.628C8.25557 22.6408 8.25557 21.0403 9.24273 20.0532L28.1375 1.1584C29.1247 0.171242 30.7252 0.171243 31.7123 1.1584C32.6995 2.14555 32.6995 3.74605 31.7123 4.7332L12.8175 23.628C11.8304 24.6151 10.2299 24.6151 9.24273 23.628Z" fill="#D9D9D9"/>
<path d="M9.24273 23.628C8.25557 22.6408 8.25557 21.0403 9.24273 20.0532L28.1375 1.1584C29.1247 0.171242 30.7252 0.171243 31.7123 1.1584C32.6995 2.14555 32.6995 3.74605 31.7123 4.7332L12.8175 23.628C11.8304 24.6151 10.2299 24.6151 9.24273 23.628Z" fill="url(#paint0_linear_2_1863)"/>
</g>
<g id="Rectangle 16">
<rect x="4.11707" y="11.7191" width="14.3973" height="4.80558" rx="2.40279" transform="rotate(45 4.11707 11.7191)" fill="#D9D9D9"/>
<rect x="4.11707" y="11.7191" width="14.3973" height="4.80558" rx="2.40279" transform="rotate(45 4.11707 11.7191)" fill="url(#paint1_linear_2_1863)"/>
</g>
</g>
</g>
<defs>
<linearGradient id="paint0_linear_2_1863" x1="13.2861" y1="5.20179" x2="27.4924" y2="19.408" gradientUnits="userSpaceOnUse">
<stop stop-color="#FF8D4D"/>
<stop offset="1" stop-color="#F87C47"/>
</linearGradient>
<linearGradient id="paint1_linear_2_1863" x1="11.3157" y1="4.45452" x2="11.3157" y2="23.5518" gradientUnits="userSpaceOnUse">
<stop stop-color="#FF8D4D"/>
<stop offset="1" stop-color="#F87C47"/>
</linearGradient>
</defs>
</svg>
