<svg width="67" height="70" viewBox="0 0 67 70" fill="none" xmlns="http://www.w3.org/2000/svg">
<g id="Group 2">
<path id="g" d="M38.6358 13.4419C39.4193 13.344 40.1048 13.5643 40.6924 14.103C41.28 14.5927 41.5738 15.2537 41.5738 16.0862C41.5738 16.8697 41.28 17.5552 40.6924 18.1428C40.1048 18.6815 39.4193 18.9018 38.6358 18.8039C38.1461 18.706 37.6319 18.6325 37.0933 18.5836C36.6036 18.5346 36.0894 18.4856 35.5508 18.4367H35.4039C35.0611 18.4367 34.8897 18.6325 34.8897 19.0243V49.4334C34.8897 51.4901 34.5469 53.6936 33.8614 56.0441C33.1758 58.4435 32.123 60.696 30.7029 62.8017C29.2829 64.9073 27.4466 66.6212 25.194 67.9433C22.9905 69.3144 20.3217 70 17.1878 70C14.3476 70 11.9237 69.5348 9.91602 68.6044C7.90833 67.674 6.24342 66.4008 4.92129 64.7849C4.1378 63.8545 3.55018 62.8751 3.15844 61.8468C2.81566 60.8185 2.64427 59.8391 2.64427 58.9087C2.64427 57.4886 3.03602 56.2644 3.81951 55.2361C4.60299 54.2568 5.72926 53.7671 7.1983 53.7671C8.61837 53.7671 9.72015 54.2323 10.5036 55.1627C11.3361 56.142 11.7523 57.2193 11.7523 58.3945C11.7523 59.7167 11.2382 60.8185 10.2098 61.6999C9.86706 62.0427 9.7936 62.3365 9.98948 62.5813C10.5771 63.4138 11.434 64.0504 12.5603 64.4911C13.6866 64.9318 15.2291 65.1521 17.1878 65.1521C19.2934 65.1521 21.1052 64.6869 22.6232 63.7565C24.1902 62.8261 25.4634 61.5775 26.4427 60.0105C27.4221 58.4925 28.1566 56.8031 28.6463 54.9423C29.136 53.0815 29.3808 51.2452 29.3808 49.4334V47.6706C29.3808 47.3767 29.3074 47.2054 29.1605 47.1564C29.0136 47.0585 28.8177 47.1074 28.5728 47.3033C27.2507 48.6254 25.7327 49.6782 24.0188 50.4617C22.3539 51.2452 20.5176 51.637 18.5099 51.637C15.4249 51.637 12.7072 51.0738 10.3567 49.9476C8.05524 48.8213 6.121 47.3523 4.55403 45.5404C3.03602 43.6797 1.88527 41.623 1.10178 39.3705C0.36726 37.069 0 34.792 0 32.5394C0 30.3359 0.36726 28.1078 1.10178 25.8553C1.8363 23.6028 2.9136 21.5461 4.33367 19.6853C5.80271 17.7756 7.66349 16.2576 9.91602 15.1313C12.1686 14.005 14.7883 13.4419 17.7754 13.4419C20.0769 13.4419 22.1091 13.8092 23.8719 14.5437C25.6348 15.2782 27.2017 16.2821 28.5728 17.5552C28.7197 17.7021 28.8666 17.7756 29.0135 17.7756C29.2584 17.7756 29.3808 17.6042 29.3808 17.2614V16.6738C29.3808 15.8903 29.6501 15.2292 30.1888 14.6906C30.7274 14.1519 31.3885 13.8826 32.172 13.8826H34.8897C35.0366 13.8826 35.3794 13.8581 35.918 13.8092C36.5057 13.7112 37.0688 13.6378 37.6074 13.5888C38.1461 13.4909 38.4889 13.4419 38.6358 13.4419ZM18.4365 46.275C20.8849 46.275 22.9905 45.8098 24.7533 44.8794C26.5651 43.949 28.0097 42.7737 29.087 41.3537C29.2829 41.1088 29.3808 40.8395 29.3808 40.5457V24.1659C29.3808 23.8721 29.2829 23.6028 29.087 23.3579C27.7159 21.8889 26.1 20.7381 24.2392 19.9057C22.3784 19.0732 20.4197 18.657 18.363 18.657C15.8167 18.657 13.5886 19.2691 11.6789 20.4933C9.81809 21.7175 8.34905 23.3824 7.27175 25.488C6.24342 27.5447 5.72926 29.8707 5.72926 32.466C5.72926 35.0123 6.26791 37.3383 7.3452 39.4439C8.47147 41.5496 9.98948 43.2145 11.8992 44.4387C13.8579 45.6629 16.037 46.275 18.4365 46.275Z" fill="#F6A961"/>
<path id="g_2" d="M27.4699 13.4419C26.6865 13.344 26.0009 13.5643 25.4133 14.103C24.8257 14.5927 24.5319 15.2537 24.5319 16.0862C24.5319 16.8697 24.8257 17.5552 25.4133 18.1428C26.0009 18.6815 26.6865 18.9018 27.4699 18.8039C27.9596 18.706 28.4738 18.6325 29.0124 18.5836C29.5021 18.5346 30.0163 18.4856 30.5549 18.4367H30.7018C31.0446 18.4367 31.216 18.6325 31.216 19.0243V49.4334C31.216 51.4901 31.5588 53.6936 32.2443 56.0441C32.9299 58.4435 33.9827 60.696 35.4028 62.8017C36.8228 64.9073 38.6591 66.6212 40.9117 67.9433C43.1152 69.3144 45.784 70 48.9179 70C51.7581 70 54.182 69.5348 56.1897 68.6044C58.1974 67.674 59.8623 66.4008 61.1844 64.7849C61.9679 63.8545 62.5555 62.8751 62.9473 61.8468C63.2901 60.8185 63.4614 59.8391 63.4614 58.9087C63.4614 57.4886 63.0697 56.2644 62.2862 55.2361C61.5027 54.2568 60.3765 53.7671 58.9074 53.7671C57.4873 53.7671 56.3856 54.2323 55.6021 55.1627C54.7696 56.142 54.3534 57.2193 54.3534 58.3945C54.3534 59.7167 54.8676 60.8185 55.8959 61.6999C56.2387 62.0427 56.3121 62.3365 56.1162 62.5813C55.5286 63.4138 54.6717 64.0504 53.5454 64.4911C52.4192 64.9318 50.8767 65.1521 48.9179 65.1521C46.8123 65.1521 45.0005 64.6869 43.4825 63.7565C41.9155 62.8261 40.6423 61.5775 39.663 60.0105C38.6836 58.4925 37.9491 56.8031 37.4594 54.9423C36.9697 53.0815 36.7249 51.2452 36.7249 49.4334V47.6706C36.7249 47.3767 36.7984 47.2054 36.9453 47.1564C37.0922 47.0585 37.288 47.1074 37.5329 47.3033C38.855 48.6254 40.373 49.6782 42.0869 50.4617C43.7518 51.2452 45.5881 51.637 47.5958 51.637C50.6808 51.637 53.3985 51.0738 55.749 49.9476C58.0505 48.8213 59.9847 47.3523 61.5517 45.5404C63.0697 43.6797 64.2204 41.623 65.0039 39.3705C65.7385 37.069 66.1057 34.792 66.1057 32.5394C66.1057 30.3359 65.7385 28.1078 65.0039 25.8553C64.2694 23.6028 63.1921 21.5461 61.772 19.6853C60.303 17.7756 58.4422 16.2576 56.1897 15.1313C53.9372 14.005 51.3174 13.4419 48.3303 13.4419C46.0288 13.4419 43.9967 13.8092 42.2338 14.5437C40.471 15.2782 38.904 16.2821 37.5329 17.5552C37.386 17.7021 37.2391 17.7756 37.0922 17.7756C36.8473 17.7756 36.7249 17.6042 36.7249 17.2614V16.6738C36.7249 15.8903 36.4556 15.2292 35.9169 14.6906C35.3783 14.1519 34.7172 13.8826 33.9337 13.8826H31.216C31.0691 13.8826 30.7263 13.8581 30.1877 13.8092C29.6001 13.7112 29.0369 13.6378 28.4983 13.5888C27.9596 13.4909 27.6169 13.4419 27.4699 13.4419ZM47.6693 46.275C45.2209 46.275 43.1152 45.8098 41.3524 44.8794C39.5406 43.949 38.096 42.7737 37.0187 41.3537C36.8228 41.1088 36.7249 40.8395 36.7249 40.5457V24.1659C36.7249 23.8721 36.8228 23.6028 37.0187 23.3579C38.3898 21.8889 40.0058 20.7381 41.8665 19.9057C43.7273 19.0732 45.6861 18.657 47.7427 18.657C50.289 18.657 52.5171 19.2691 54.4268 20.4933C56.2876 21.7175 57.7567 23.3824 58.834 25.488C59.8623 27.5447 60.3765 29.8707 60.3765 32.466C60.3765 35.0123 59.8378 37.3383 58.7605 39.4439C57.6342 41.5496 56.1162 43.2145 54.2065 44.4387C52.2478 45.6629 50.0687 46.275 47.6693 46.275Z" fill="#F7A961"/>
<path id="." d="M32.7348 9.84257C31.3637 9.84257 30.1884 9.35289 29.2091 8.37353C28.2787 7.44314 27.8135 6.29239 27.8135 4.92128C27.8135 3.55018 28.2787 2.39943 29.2091 1.46904C30.1884 0.489679 31.3637 0 32.7348 0C34.1059 0 35.2566 0.489679 36.187 1.46904C37.1664 2.39943 37.656 3.55018 37.656 4.92128C37.656 6.29239 37.1664 7.44314 36.187 8.37353C35.2566 9.35289 34.1059 9.84257 32.7348 9.84257Z" fill="#F6A961"/>
</g>
</svg>
