<svg width="76" height="76" viewBox="0 0 76 76" fill="none" xmlns="http://www.w3.org/2000/svg">
<path id="Vector" d="M38 76C43.1978 76 48.0919 75.0034 52.6827 73.0108C57.2731 71.0429 61.3054 68.3088 64.7786 64.8095C68.276 61.3102 71.0206 57.2765 73.0123 52.7079C75.0039 48.1151 76 43.2064 76 37.9818C76 32.7815 75.0039 27.897 73.0123 23.3285C71.0206 18.7357 68.276 14.6897 64.7786 11.1904C61.3054 7.6911 57.2612 4.95729 52.6461 2.98898C48.0557 0.996322 43.1614 0 37.9636 0C32.7657 0 27.8715 0.996322 23.2809 2.98898C18.6903 4.95729 14.6462 7.6911 11.1486 11.1904C7.67529 14.6897 4.9428 18.7357 2.9511 23.3285C0.983701 27.897 0 32.7815 0 37.9818C0 43.2064 0.983701 48.1151 2.9511 52.7079C4.9428 57.2765 7.68745 61.3102 11.1851 64.8095C14.6826 68.3088 18.7267 71.0429 23.3174 73.0108C27.908 75.0034 32.8022 76 38 76ZM33.9559 56.0614C33.2029 56.0614 32.5229 55.9032 31.9156 55.5873C31.3084 55.2472 30.7376 54.7371 30.2033 54.0564L21.4228 43.4859C21.0828 43.0241 20.8156 42.5746 20.6213 42.1372C20.4513 41.6755 20.3662 41.2016 20.3662 40.7156C20.3662 39.6949 20.7185 38.8323 21.4228 38.1276C22.1272 37.3986 22.9895 37.034 24.0096 37.034C24.6168 37.034 25.1633 37.1677 25.6491 37.435C26.1349 37.678 26.6207 38.1033 27.1064 38.7108L33.8466 47.1675L48.5293 23.693C49.4038 22.3079 50.4844 21.6154 51.7717 21.6154C52.7435 21.6154 53.6057 21.9313 54.3585 22.5631C55.1356 23.1949 55.5247 24.0211 55.5247 25.0417C55.5247 25.5034 55.4273 25.9652 55.233 26.4269C55.063 26.8886 54.8444 27.326 54.577 27.7391L37.5628 54.0564C37.1256 54.6882 36.5912 55.1864 35.9597 55.5512C35.3525 55.8913 34.6845 56.0614 33.9559 56.0614Z" fill="#3897F0"/>
</svg>
